<svg xmlns="http://www.w3.org/2000/svg" width="20" height="20" fill="none"><path fill="#fff" d="M20 10c0-5.523-4.477-10-10-10S0 4.477 0 10s4.477 10 10 10 10-4.477 10-10Z"/><path fill="#4285F4" fill-rule="evenodd" d="M14.894 10.114c0-.355-.032-.696-.091-1.023h-4.71v1.934h2.692a2.3 2.3 0 0 1-.998 1.51v1.254h1.616c.945-.87 1.49-2.153 1.49-3.675Z" clip-rule="evenodd"/><path fill="#34A853" fill-rule="evenodd" d="M10.094 15c1.35 0 2.481-.448 3.309-1.211l-1.616-1.255c-.448.3-1.02.477-1.693.477-1.303 0-2.405-.88-2.798-2.061h-1.67v1.295A4.998 4.998 0 0 0 10.093 15Z" clip-rule="evenodd"/><path fill="#FBBC05" fill-rule="evenodd" d="M7.296 10.95c-.1-.3-.157-.62-.157-.95 0-.33.057-.65.157-.95V7.755h-1.67a4.998 4.998 0 0 0 0 4.49l1.67-1.295Z" clip-rule="evenodd"/><path fill="#EA4335" fill-rule="evenodd" d="M10.094 6.989c.734 0 1.393.252 1.91.747l1.435-1.434C12.573 5.495 11.441 5 10.094 5a4.998 4.998 0 0 0-4.469 2.755l1.67 1.295c.394-1.182 1.496-2.061 2.799-2.061Z" clip-rule="evenodd"/></svg>