<svg width="20" height="20" viewBox="0 0 20 20" fill="none" xmlns="http://www.w3.org/2000/svg">
<path d="M10.7208 2.49686C10.3997 1.9434 9.60042 1.9434 9.27927 2.49686L7.01756 6.39462C6.85892 6.66802 6.58471 6.8546 6.27216 6.90181L2.03356 7.54199C1.32166 7.64952 1.07194 8.54836 1.62636 9.00769L4.78394 11.6237C5.07623 11.8659 5.21366 12.2478 5.14266 12.6207L4.31668 16.9583C4.18611 17.644 4.90594 18.1768 5.52356 17.8516L9.51473 15.75C9.81851 15.5901 10.1816 15.5901 10.4854 15.75L14.4765 17.8516C15.0942 18.1768 15.814 17.644 15.6834 16.9583L14.8574 12.6207C14.7864 12.2478 14.9239 11.8659 15.2162 11.6237L18.3737 9.00769C18.9282 8.54836 18.6784 7.64952 17.9665 7.54199L13.7279 6.90181C13.4154 6.8546 13.1412 6.66802 12.9825 6.39462L10.7208 2.49686Z" fill="#299764"/>
</svg>
