<svg width="20" height="20" viewBox="0 0 20 20" fill="none" xmlns="http://www.w3.org/2000/svg">
<path d="M9.99996 3.125C8.27407 3.125 6.87496 4.52411 6.87496 6.25C6.87496 7.97589 8.27407 9.375 9.99996 9.375C11.7258 9.375 13.125 7.97589 13.125 6.25C13.125 4.52411 11.7258 3.125 9.99996 3.125Z" fill="white"/>
<path d="M6.66663 11.0417C4.94074 11.0417 3.54163 12.4408 3.54163 14.1667V15.1569C3.54163 15.7846 3.99653 16.3198 4.61602 16.4209C8.18171 17.0031 11.8182 17.0031 15.3839 16.4209C16.0034 16.3198 16.4583 15.7846 16.4583 15.1569V14.1667C16.4583 12.4408 15.0592 11.0417 13.3333 11.0417H13.0492C12.8955 11.0417 12.7427 11.066 12.5966 11.1137L11.8753 11.3492C10.6567 11.7471 9.34319 11.7471 8.12462 11.3492L7.40335 11.1137C7.2572 11.066 7.10443 11.0417 6.95068 11.0417H6.66663Z" fill="white"/>
</svg>
